<?xml version="1.0" encoding="UTF-8"?>
<svg width="228px" height="59px" viewBox="0 0 228 59" version="1.1" xmlns="http://www.w3.org/2000/svg" xmlns:xlink="http://www.w3.org/1999/xlink">
    <!-- Generator: Sketch 41.2 (35397) - http://www.bohemiancoding.com/sketch -->
    <title>urltm.js-logo-white</title>
    <desc>Created with Sketch.</desc>
    <defs></defs>
    <g id="Page-1" stroke="none" stroke-width="1" fill="none" fill-rule="evenodd">
        <text id="urltm.js" font-family="TamilMN, Tamil MN" font-size="50" font-weight="normal" fill="#FFFFFF">
            <tspan x="57.1850586" y="45">urltm.js</tspan>
        </text>
        <path d="M46.1417407,15.2722551 L46.0998848,15.2303993 C44.9554852,14.0859996 43.1000906,14.0859996 41.955691,15.2303993 L39.8417613,17.344329 L35.6557115,13.1582792 L37.7696412,11.0443495 C38.9140409,9.89994983 38.9140409,8.04455531 37.7696412,6.90015563 L37.7277853,6.85829976 C36.5833856,5.71390008 34.7279911,5.71390008 33.5835914,6.85829976 L31.3648602,9.077031 C28.4916974,7.17349067 24.5825439,7.48734034 22.0510729,10.018765 L20.8999208,11.1699171 C15.8582075,16.2116304 15.2598767,24.0130563 19.1029395,29.7110049 L18.9115587,29.9023857 C16.0259548,32.7879897 16.0216998,37.4638688 18.8988401,40.3547452 C19.4727974,40.9314313 19.4835273,41.8961051 18.9044363,42.4675649 C18.3259003,43.0384235 17.3941562,43.0360648 16.8185339,42.4604887 L12.6825724,38.3245273 C9.78563729,35.4275459 5.06850357,35.3762551 2.17008846,38.2717565 C-0.722452962,41.1613842 -0.723377954,45.8487794 2.16740598,48.7395171 L2.57269108,49.1448022 C3.71709076,50.2892019 5.57248528,50.2892019 6.71688496,49.1448022 L6.75874083,49.1029463 C7.90314051,47.9585467 7.90314051,46.1031521 6.75874083,44.9587525 L6.37523929,44.5752509 C5.80502818,44.0050398 5.77006349,43.0759319 6.32445725,42.4902735 C6.89966331,41.8826464 7.85874091,41.8727028 8.44648061,42.4604425 L12.5778634,46.5918252 C15.4878871,49.501849 20.2323543,49.5431961 23.1265145,46.6174012 C25.984415,43.7282823 25.9778013,39.071273 23.1065809,36.1903865 C22.5261487,35.6080118 22.51565,34.6703477 23.0970073,34.0889442 L23.2889893,33.8969622 C28.9869379,37.7400713 36.7883638,37.1417404 41.8300771,32.0999809 L42.9812292,30.9488288 C45.5126539,28.4173579 45.8265036,24.5082044 43.9229632,21.6349953 L46.1416945,19.416264 C47.2860941,18.2720493 47.2860941,16.4166086 46.1417407,15.2722551 Z M40.8882506,28.8559427 C39.1543537,30.5898395 36.3431191,30.5898395 34.6091759,28.8559427 L24.1440978,18.3908645 C22.4102009,16.6569677 22.4102009,13.845733 24.1440978,12.1117899 C25.5110505,10.7448372 27.5473734,10.4558698 29.1977435,11.244194 L27.2627072,13.1792303 C26.1183075,14.3236299 26.1183075,16.1790245 27.2627072,17.3233779 L27.3045631,17.3652338 C28.4489627,18.5096334 30.3043573,18.5096334 31.4487569,17.3652338 L33.5626866,15.2513041 L37.7487364,19.4373538 L35.6348067,21.5512835 C34.490407,22.6956832 34.490407,24.5510777 35.6348067,25.6954774 L35.6766626,25.7373333 C36.8210623,26.881733 38.6764568,26.881733 39.8208102,25.7373333 L41.7558465,23.802297 C42.5441706,25.4526208 42.255157,27.48899 40.8882506,28.8559427 Z" id="Shape" fill="#FFFFFF"></path>
    </g>
</svg>