<?xml version="1.0" encoding="UTF-8"?>
<svg width="228px" height="59px" viewBox="0 0 228 59" version="1.1" xmlns="http://www.w3.org/2000/svg" xmlns:xlink="http://www.w3.org/1999/xlink">
    <!-- Generator: Sketch 41.2 (35397) - http://www.bohemiancoding.com/sketch -->
    <title>urltm.js-logo</title>
    <desc>Created with Sketch.</desc>
    <defs></defs>
    <g id="Page-1" stroke="none" stroke-width="1" fill="none" fill-rule="evenodd">
        <text id="urltm.js" font-family="TamilMN, Tamil MN" font-size="50" font-weight="normal" fill="#000000">
            <tspan x="58.1850586" y="43">urltm.js</tspan>
        </text>
        <path d="M47.1417407,13.2722551 L47.0998848,13.2303993 C45.9554852,12.0859996 44.1000906,12.0859996 42.955691,13.2303993 L40.8417613,15.344329 L36.6557115,11.1582792 L38.7696412,9.04434951 C39.9140409,7.89994983 39.9140409,6.04455531 38.7696412,4.90015563 L38.7277853,4.85829976 C37.5833856,3.71390008 35.7279911,3.71390008 34.5835914,4.85829976 L32.3648602,7.077031 C29.4916974,5.17349067 25.5825439,5.48734034 23.0510729,8.01876501 L21.8999208,9.16991713 C16.8582075,14.2116304 16.2598767,22.0130563 20.1029395,27.7110049 L19.9115587,27.9023857 C17.0259548,30.7879897 17.0216998,35.4638688 19.8988401,38.3547452 C20.4727974,38.9314313 20.4835273,39.8961051 19.9044363,40.4675649 C19.3259003,41.0384235 18.3941562,41.0360648 17.8185339,40.4604887 L13.6825724,36.3245273 C10.7856373,33.4275459 6.06850357,33.3762551 3.17008846,36.2717565 C0.277547038,39.1613842 0.276622046,43.8487794 3.16740598,46.7395171 L3.57269108,47.1448022 C4.71709076,48.2892019 6.57248528,48.2892019 7.71688496,47.1448022 L7.75874083,47.1029463 C8.90314051,45.9585467 8.90314051,44.1031521 7.75874083,42.9587525 L7.37523929,42.5752509 C6.80502818,42.0050398 6.77006349,41.0759319 7.32445725,40.4902735 C7.89966331,39.8826464 8.85874091,39.8727028 9.44648061,40.4604425 L13.5778634,44.5918252 C16.4878871,47.501849 21.2323543,47.5431961 24.1265145,44.6174012 C26.984415,41.7282823 26.9778013,37.071273 24.1065809,34.1903865 C23.5261487,33.6080118 23.51565,32.6703477 24.0970073,32.0889442 L24.2889893,31.8969622 C29.9869379,35.7400713 37.7883638,35.1417404 42.8300771,30.0999809 L43.9812292,28.9488288 C46.5126539,26.4173579 46.8265036,22.5082044 44.9229632,19.6349953 L47.1416945,17.416264 C48.2860941,16.2720493 48.2860941,14.4166086 47.1417407,13.2722551 Z M41.8882506,26.8559427 C40.1543537,28.5898395 37.3431191,28.5898395 35.6091759,26.8559427 L25.1440978,16.3908645 C23.4102009,14.6569677 23.4102009,11.845733 25.1440978,10.1117899 C26.5110505,8.74483722 28.5473734,8.45586982 30.1977435,9.24419396 L28.2627072,11.1792303 C27.1183075,12.3236299 27.1183075,14.1790245 28.2627072,15.3233779 L28.3045631,15.3652338 C29.4489627,16.5096334 31.3043573,16.5096334 32.4487569,15.3652338 L34.5626866,13.2513041 L38.7487364,17.4373538 L36.6348067,19.5512835 C35.490407,20.6956832 35.490407,22.5510777 36.6348067,23.6954774 L36.6766626,23.7373333 C37.8210623,24.881733 39.6764568,24.881733 40.8208102,23.7373333 L42.7558465,21.802297 C43.5441706,23.4526208 43.255157,25.48899 41.8882506,26.8559427 Z" id="Shape" fill="#000000"></path>
    </g>
</svg>